<?xml version="1.0" encoding="utf-8"?>
<!-- Generator: Adobe Illustrator 16.0.0, SVG Export Plug-In . SVG Version: 6.00 Build 0)  -->
<!DOCTYPE svg PUBLIC "-//W3C//DTD SVG 1.1//EN" "http://www.w3.org/Graphics/SVG/1.1/DTD/svg11.dtd">
<svg version="1.1" id="Calque_1" xmlns="http://www.w3.org/2000/svg" xmlns:xlink="http://www.w3.org/1999/xlink" x="0px" y="0px"
	 width="549.1px" height="160.5px" viewBox="0 0 549.1 160.5" enable-background="new 0 0 549.1 160.5" xml:space="preserve">
<g>
	<polygon points="30.2,0 0,0 0,160.5 112.2,160.5 112.2,133.3 30.2,133.3 	"/>
	<path d="M238,72.9c8.6-1.6,15-5,20-11.6c4.5-6.1,6.8-14.8,6.8-21.8c0-17.5-12-31.8-28.2-36.6c-7.7-2.3-13.4-2.5-34.7-2.7h-57.2
		v160.3h62.7c18.2,0,26.1-0.2,36.3-3.9c19.3-6.8,28.6-23.2,28.6-41.6C272.3,90.4,255.7,76.1,238,72.9z M174.4,24.7h18.8
		c21.8,0.2,25,0.5,31.3,4.1c6.1,3.6,9.3,9.8,9.3,15.9c0,7.3-4.3,13.4-10.7,16.6c-5.4,3-12.9,3.2-20.4,3.2c-3.6,0.2-9.8,0.2-18.2,0.2
		h-10.2V24.7z M234.1,129.2c-7.7,5.4-12.5,5.4-30.2,5.4h-29.5V87.2l29.7,0.2c10.2,0,27,0,34.3,12.9c2.3,4.1,3,8.4,3,12
		C241.4,120.1,238.2,126.3,234.1,129.2z"/>
	<polygon points="112.2,14.2 104.2,14.2 104.2,24.8 93.5,24.8 93.5,32.9 104.2,32.9 104.2,43.5 112.2,43.5 112.2,32.9 122.9,32.9 
		122.9,24.8 112.2,24.8 	"/>
	<path d="M339.8,22c2.8,0,4.8-1.3,6-2.7c0.9-1,1.3-2,1.5-2.6l-3-1.3c-0.1,0.4-0.3,1-0.9,1.8c-0.7,0.9-1.7,1.7-3.3,1.7
		c-2.7,0-4.8-2.2-4.8-6.1c0-3.7,2-6,4.8-6c1.8,0,2.7,1,3.1,1.5c0.4,0.7,0.6,1.4,0.6,1.7l3.2-0.9c-0.4-1.2-1.7-5.3-7.1-5.3
		c-4.4,0-8.2,3.2-8.2,9C331.7,18.7,335.3,22,339.8,22z"/>
	<path d="M352.7,15.9c0-1.4,0-1.6,0.1-2c0.2-0.7,1.1-2.2,3-2.2c1.6,0,2,1.1,2.1,1.3c0.1,0.4,0.1,0.6,0.2,1.7v6.7h2.9V14
		c0-1.4,0-2.6-1-3.7c-0.7-0.7-1.8-1.3-3.4-1.3c-1.7,0-3,0.7-3.9,1.6V4.3h-2.9v17.3h2.9V15.9z"/>
	<path d="M368.1,21.9c1.7,0,3-0.7,3.6-1.3c0,0.2,0,0.7,0.1,1h3.5c-0.5-0.7-0.5-1.1-0.5-2v-6.5c0-1.3,0-2.5-1.5-3.4
		c-1.1-0.6-2.5-0.8-3.7-0.8c-0.8,0-3.7,0-4.9,2.1c-0.4,0.7-0.4,1.2-0.5,1.8l3,0.2c0-0.3,0-0.7,0.3-1.1c0.3-0.4,1-0.8,2.2-0.8
		c2,0,2.1,1.3,2.1,1.9c-1.1,0.3-1.3,0.4-3.8,0.9c-1.2,0.2-3.1,0.6-3.9,2.4c-0.2,0.5-0.4,1.1-0.4,1.7
		C363.6,20.2,365.3,21.9,368.1,21.9z M369.2,16.2c1.3-0.2,2-0.4,2.6-0.7v1.3c0,0.4,0,0.7-0.2,1.1c-0.3,0.7-1.4,1.4-2.9,1.4
		c-1.2,0-2-0.5-2-1.4C366.7,16.6,368.1,16.4,369.2,16.2z"/>
	<path d="M381.2,17c0-2,0-3.3,1.3-4.2c0.9-0.7,2-0.7,2.6-0.7V9c-2.7-0.1-3.6,1.4-3.9,2V9.3h-2.8v12.3h2.8V17z"/>
	<rect x="387.5" y="4.3" width="3" height="17.3"/>
	<path d="M399.8,21.9c3.7,0,6.2-2.7,6.2-6.5c0-4.1-2.9-6.4-6.4-6.4c-3.7,0-6.3,2.7-6.3,6.4C393.4,19.1,395.9,21.9,399.8,21.9z
		 M399.6,11.6c2.1,0,3.2,1.7,3.3,3.8c0.1,2-1,3.9-3.1,3.9c-1.8,0-3.3-1.4-3.3-3.9C396.5,13.1,397.8,11.6,399.6,11.6z"/>
	<path d="M409.2,17.7c0,1.2,0,2,0.2,2.5c0.6,1.5,2.6,1.5,3.2,1.5c0.7,0,1.3,0,2.1-0.2V19c-0.4,0.1-0.8,0.1-1.2,0.1
		c-1.4,0-1.4-0.7-1.4-2.2v-5.5h2.6V9.3h-2.6V5h-2.9v4.3h-1.8v2.1h1.8V17.7z"/>
	<path d="M417.4,17.7c0,1.2,0,2,0.2,2.5c0.6,1.5,2.6,1.5,3.2,1.5c0.7,0,1.3,0,2.1-0.2V19c-0.4,0.1-0.8,0.1-1.2,0.1
		c-1.4,0-1.4-0.7-1.4-2.2v-5.5h2.6V9.3h-2.6V5h-2.9v4.3h-1.8v2.1h1.8V17.7z"/>
	<path d="M430.8,21.9c2.5,0,4.5-1.1,6-3.1l-2.5-1.4c-0.4,0.5-1.2,1.7-3.2,1.7c-1.9,0-3.1-1.1-3.5-3h9.1c0-1.2-0.2-3.4-1.3-4.8
		c-0.2-0.4-1.6-2.3-4.8-2.3c-3.5,0-6.1,2.3-6.1,6.4C424.5,19.9,427.6,21.9,430.8,21.9z M430.7,11.3c1.3,0,2.5,0.7,2.7,2.6h-5.7
		C428,12.2,429.1,11.3,430.7,11.3z"/>
	<polygon points="457.2,18.6 450.3,18.6 450.3,4.2 447.1,4.2 447.1,21.6 457.2,21.6 	"/>
	<path d="M463.4,21.9c1.7,0,3-0.7,3.6-1.3c0,0.2,0,0.7,0.1,1h3.5c-0.5-0.7-0.5-1.1-0.5-2v-6.5c0-1.3,0-2.5-1.5-3.4
		c-1.1-0.6-2.5-0.8-3.7-0.8c-0.8,0-3.7,0-4.9,2.1c-0.4,0.7-0.4,1.2-0.5,1.8l3,0.2c0-0.3,0-0.7,0.3-1.1c0.3-0.4,1-0.8,2.2-0.8
		c2,0,2.1,1.3,2.1,1.9c-1.1,0.3-1.3,0.4-3.8,0.9c-1.2,0.2-3.1,0.6-3.9,2.4c-0.2,0.5-0.4,1.1-0.4,1.7
		C458.9,20.2,460.6,21.9,463.4,21.9z M464.5,16.2c1.3-0.2,2-0.4,2.6-0.7v1.3c0,0.4,0,0.7-0.2,1.1c-0.3,0.7-1.4,1.4-2.9,1.4
		c-1.2,0-2-0.5-2-1.4C462.1,16.6,463.5,16.4,464.5,16.2z"/>
	<path d="M487.8,8.9c-2.2,0-3.4,1.2-3.9,1.9c-0.8-1.4-2.3-1.9-3.4-1.9s-2.9,0.5-3.9,1.7V9.3h-2.9v12.3h2.9v-5.1c0-1.2,0-2.4,0.5-3.3
		c0.5-0.9,1.4-1.4,2.3-1.4c1,0,1.7,0.6,1.9,1.4c0.1,0.4,0.1,0.7,0.1,1.6v6.8h2.9v-5.8c0-1.1,0.1-2,0.6-2.9c0.4-0.6,1.2-1.2,2.1-1.2
		c2.2,0,2.1,1.9,2.1,3.1v6.8h2.9v-7.7c0-1.3,0-2.6-1-3.7C490.2,9.3,489,8.9,487.8,8.9z"/>
	<path d="M507.5,15.4c0-4.1-2.9-6.4-6.4-6.4c-3.7,0-6.3,2.7-6.3,6.4c0,3.8,2.5,6.5,6.4,6.5C505,21.9,507.5,19.2,507.5,15.4z
		 M498,15.3c0-2.3,1.3-3.7,3.2-3.7c2.1,0,3.2,1.7,3.3,3.8c0.1,2-1,3.9-3.1,3.9C499.5,19.2,498,17.8,498,15.3z"/>
	<path d="M518.6,10.6c-0.3-0.4-1.3-1.6-3.5-1.6c-2.3,0-5.5,1.5-5.5,6.1c0,3.9,2.4,5.9,5.3,5.9c1.8,0,3-0.7,3.7-1.3
		c0,1.5,0,2.2-0.4,2.8c-0.3,0.4-0.9,1-2.4,1c-1.8,0-2.3-0.8-2.5-1.5H510c0.4,2,1.3,3.9,5.6,3.9c2.9,0,4.4-1,5.1-1.9
		c0.8-1,0.8-2,0.8-4.4V9.3h-2.9V10.6z M515.7,18.2c-1.7,0-3-1.1-3-3.2c0-2.4,1.5-3.4,3-3.4c2,0,3.1,1.5,3,3.5
		C518.7,17.3,517.3,18.2,515.7,18.2z"/>
	<rect x="525.2" y="4.3" width="3" height="17.3"/>
	<rect x="531.8" y="9.3" width="2.9" height="12.3"/>
	<rect x="531.8" y="4.4" width="2.9" height="3"/>
	<path d="M548.6,19.6v-6.5c0-1.3,0-2.5-1.5-3.4c-1.1-0.6-2.5-0.8-3.7-0.8c-0.8,0-3.7,0-4.9,2.1c-0.4,0.7-0.4,1.2-0.5,1.8l3,0.2
		c0-0.3,0-0.7,0.3-1.1c0.3-0.4,1-0.8,2.2-0.8c2,0,2.1,1.3,2.1,1.9c-1.1,0.3-1.3,0.4-3.8,0.9c-1.2,0.2-3.1,0.6-3.9,2.4
		c-0.2,0.5-0.4,1.1-0.4,1.7c0,2.1,1.7,3.8,4.4,3.8c1.7,0,3-0.7,3.6-1.3c0,0.2,0,0.7,0.1,1h3.5C548.6,20.8,548.6,20.5,548.6,19.6z
		 M545.6,16.8c0,0.4,0,0.7-0.2,1.1c-0.3,0.7-1.4,1.4-2.9,1.4c-1.2,0-2-0.5-2-1.4c0-1.3,1.4-1.5,2.5-1.7c1.3-0.2,2-0.4,2.6-0.7V16.8z
		"/>
	<polygon points="332.8,37.9 332.8,55.3 343,55.3 343,52.3 336.1,52.3 336.1,37.9 	"/>
	<path d="M352.9,55.3h3.5c-0.5-0.7-0.5-1.1-0.5-2v-6.5c0-1.3,0-2.5-1.5-3.4c-1.1-0.6-2.5-0.8-3.7-0.8c-0.8,0-3.7,0-4.9,2.1
		c-0.4,0.7-0.4,1.2-0.5,1.8l3,0.2c0-0.3,0-0.7,0.3-1.1c0.3-0.4,1-0.8,2.2-0.8c2,0,2.1,1.3,2.1,1.9c-1.1,0.3-1.3,0.4-3.8,0.9
		c-1.2,0.2-3.1,0.6-3.9,2.4c-0.2,0.5-0.4,1.1-0.4,1.7c0,2.1,1.7,3.8,4.4,3.8c1.7,0,3-0.7,3.6-1.3C352.8,54.5,352.9,55,352.9,55.3z
		 M349.8,53c-1.2,0-2-0.5-2-1.4c0-1.3,1.4-1.5,2.5-1.7c1.3-0.2,2-0.4,2.6-0.7v1.3c0,0.4,0,0.7-0.2,1.1C352.4,52.3,351.3,53,349.8,53
		z"/>
	<path d="M359.4,43v7.1c0,1.8,0,3,0.8,4c0.4,0.6,1.4,1.4,3.4,1.4c2.3,0,3.5-1.1,4-1.5v1.3h2.9V43h-2.9v5.2c0,1.7,0,2.5-0.5,3.3
		c-0.4,0.6-1.2,1.3-2.4,1.3c-1.1,0-2-0.5-2.3-1.5c-0.1-0.3-0.1-0.7-0.1-1.2v-7H359.4z"/>
	<path d="M374.2,43v12.3h2.8v-4.5c0-2,0-3.3,1.3-4.2c0.9-0.7,2-0.7,2.6-0.7v-3c-2.7-0.1-3.6,1.4-3.9,2V43H374.2z"/>
	<path d="M382.2,49.1c0,4.5,3.1,6.5,6.3,6.5c2.5,0,4.5-1.1,6-3.1l-2.5-1.4c-0.4,0.5-1.2,1.7-3.2,1.7c-1.9,0-3.1-1.1-3.5-3h9.1
		c0-1.2-0.2-3.4-1.3-4.8c-0.2-0.4-1.6-2.3-4.8-2.3C384.8,42.6,382.2,45,382.2,49.1z M391.1,47.6h-5.7c0.3-1.7,1.4-2.6,3-2.6
		C389.7,45,390.9,45.6,391.1,47.6z"/>
	<path d="M401.1,43.5c-0.5,0.3-0.8,0.7-1,1V43h-3v12.3h3v-5.3c0-0.9,0-2.2,0.5-3.1c0.4-0.8,1.3-1.4,2.3-1.4c1,0,1.7,0.6,2,1.6
		c0.1,0.3,0.1,1,0.1,1.9v6.3h2.9V48c0-1.6,0-2.9-0.8-3.9c-0.6-0.8-1.8-1.5-3.2-1.5C402.9,42.6,401.8,42.9,401.1,43.5z"/>
	<path d="M417.3,45.1V43h-2.6v-4.3h-2.9V43H410v2.1h1.8v6.3c0,1.2,0,2,0.2,2.5c0.6,1.5,2.6,1.5,3.2,1.5c0.7,0,1.3,0,2.1-0.2v-2.5
		c-0.4,0.1-0.8,0.1-1.2,0.1c-1.4,0-1.4-0.7-1.4-2.2v-5.5H417.3z"/>
	<path d="M427.2,37.9v17.3h6.8c2,0,2.8,0,3.9-0.4c2.1-0.7,3.1-2.5,3.1-4.5c0-2.7-1.8-4.2-3.7-4.6c0.9-0.2,1.6-0.5,2.2-1.3
		c0.5-0.7,0.7-1.6,0.7-2.4c0-1.9-1.3-3.4-3-3.9c-0.8-0.2-1.4-0.3-3.8-0.3H427.2z M437.3,48.8c0.2,0.4,0.3,0.9,0.3,1.3
		c0,0.8-0.3,1.5-0.8,1.8c-0.8,0.6-1.3,0.6-3.3,0.6h-3.2v-5.1l3.2,0C434.7,47.4,436.5,47.4,437.3,48.8z M436.8,42.8
		c0,0.8-0.5,1.4-1.2,1.8c-0.6,0.3-1.4,0.3-2.2,0.3c-0.4,0-1.1,0-2,0h-1.1v-4.3h2c2.4,0,2.7,0,3.4,0.4
		C436.5,41.4,436.8,42.1,436.8,42.8z"/>
	<path d="M452.3,55.3h2.9V43h-2.9v5.2c0,1.7,0,2.5-0.5,3.3c-0.4,0.6-1.2,1.3-2.4,1.3c-1.1,0-2-0.5-2.3-1.5c-0.1-0.3-0.1-0.7-0.1-1.2
		v-7h-3v7.1c0,1.8,0,3,0.8,4c0.4,0.6,1.4,1.4,3.4,1.4c2.3,0,3.5-1.1,4-1.5V55.3z"/>
	<path d="M461.7,44.7V43h-2.8v12.3h2.8v-4.5c0-2,0-3.3,1.3-4.2c0.9-0.7,2-0.7,2.6-0.7v-3C462.9,42.7,462.1,44.1,461.7,44.7z"/>
	<path d="M473.9,55.2v-2.5c-0.4,0.1-0.8,0.1-1.2,0.1c-1.4,0-1.4-0.7-1.4-2.2v-5.5h2.6V43h-2.6v-4.3h-2.9V43h-1.8v2.1h1.8v6.3
		c0,1.2,0,2,0.2,2.5c0.6,1.5,2.6,1.5,3.2,1.5C472.5,55.4,473.1,55.3,473.9,55.2z"/>
	<path d="M487.8,52.5l-2.5-1.4c-0.4,0.5-1.2,1.7-3.2,1.7c-1.9,0-3.1-1.1-3.5-3h9.1c0-1.2-0.2-3.4-1.3-4.8c-0.2-0.4-1.6-2.3-4.8-2.3
		c-3.5,0-6.1,2.3-6.1,6.4c0,4.5,3.1,6.5,6.3,6.5C484.3,55.6,486.2,54.5,487.8,52.5z M481.7,45c1.3,0,2.5,0.7,2.7,2.6h-5.7
		C479,45.9,480.1,45,481.7,45z"/>
	<path d="M332.8,88.9h6c1.5,0,3.8,0,5.8-1.8c2.4-2.2,2.4-5.6,2.4-6.8c0-1.2-0.1-4.3-2.2-6.5c-2-2.1-4.2-2.1-6.6-2.1h-5.4V88.9z
		 M335.1,73.7h2.7c1.2,0,2.2,0,3.2,0.3c2.8,0.9,3.6,3.5,3.6,6.4c0,3.7-1.5,5.3-2.6,5.9c-1.2,0.7-2.3,0.7-3.8,0.7h-3.1V73.7z"/>
	<rect x="350.4" y="71.6" width="1.9" height="2.3"/>
	<rect x="350.4" y="77.4" width="1.9" height="11.5"/>
	<path d="M357.8,83.6c0-1.1,0-2.1,0.5-2.9c0.6-0.9,1.5-1.4,2.7-1.4c0.3,0,0.6,0,0.8,0v-2.1c-0.8,0-2.9,0.1-4,2.3v-2.1h-2v11.5h2
		V83.6z"/>
	<path d="M374.1,81.1c-0.7-2.9-2.9-4.1-5.1-4.1c-2.5,0-5.6,1.7-5.6,6c0,3.9,2.2,6.2,5.7,6.2c3.9,0,5-3.1,5.2-3.9l-2-0.3
		c-0.3,1.5-1.3,2.7-3.1,2.7c-2.7,0-3.8-2.4-3.7-4.3h8.8C374.3,83,374.3,82.1,374.1,81.1z M365.6,82.1c0.2-2.3,1.6-3.6,3.3-3.6
		c1,0,3.1,0.5,3.3,3.6H365.6z"/>
	<path d="M387.2,86.7c0.5-0.9,0.6-1.5,0.7-2l-2.1-0.2c-0.1,0.9-0.4,3.2-3.3,3.2c-1.2,0-2.2-0.5-2.9-1.5c-0.5-0.8-0.8-1.9-0.8-3.1
		c0-1,0.1-4.7,3.5-4.7c2.6,0,3,2.2,3.1,2.6l2.2-0.2c-0.8-3.2-3.5-3.9-5.3-3.9c-3.8,0-5.6,3-5.6,6.3c0,2.8,1.5,6,5.8,6
		C384.6,89.3,386.2,88.5,387.2,86.7z"/>
	<path d="M395.3,79v-1.6h-2.1v-3.7h-2v3.7h-1.8V79h1.8v7.5c0,1.5,0,2.6,2.2,2.6c0.7,0,1.5-0.1,1.9-0.2v-1.6
		c-0.4,0.1-0.9,0.3-1.3,0.3c-0.8,0-0.8-0.6-0.8-2V79H395.3z"/>
	<rect x="398.3" y="71.6" width="1.9" height="2.3"/>
	<rect x="398.3" y="77.4" width="1.9" height="11.5"/>
	<path d="M403.2,83.3c0,3,1.7,6,5.7,6c3.5,0,5.6-2.6,5.6-6.1c0-3.2-1.7-6.1-5.6-6.1C404.5,77,403.2,80.7,403.2,83.3z M412.3,81.5
		c0.1,0.3,0.1,0.9,0.1,1.6c0,1.2-0.3,4.6-3.5,4.6c-2.5,0-3.5-2-3.5-4.4c0-2.6,1.1-4.7,3.7-4.7C410.3,78.6,411.8,79.3,412.3,81.5z"/>
	<path d="M419.5,79.1v-1.7h-2v11.5h2v-6.6c0-0.9,0-1.7,0.9-2.6c0.6-0.6,1.3-0.9,2.2-0.9c1.1,0,2.1,0.5,2.5,1.6
		c0.1,0.4,0.1,0.7,0.1,1.9v6.6h1.9V82c0-1,0-1.7-0.2-2.4c-0.6-1.9-2.3-2.6-3.8-2.6C422.4,77,420.6,77.2,419.5,79.1z"/>
	<path d="M446.8,85.7v-3.8c0-1.5,0-2.9-1.3-3.9c-0.9-0.7-2.3-1-3.4-1c-2,0-3.3,0.8-4,2.1c-0.4,0.7-0.4,1.3-0.5,1.7l2.1,0.1
		c0-0.6,0-2.4,2.5-2.4c2.6,0,2.6,2,2.6,3.2V82l-1.8,0.1c-3.5,0.3-4.7,1.1-5.3,2c-0.3,0.5-0.5,1.1-0.5,1.7c0,2,1.7,3.3,3.9,3.3
		c2.2,0,3.4-1.3,4-1.9c0.2,1.4,1.1,1.7,2,1.7c0.6,0,0.9-0.1,1.2-0.2v-1.7c-0.2,0.1-0.4,0.1-0.6,0.1
		C446.8,87.3,446.8,86.8,446.8,85.7z M444.6,85.9c-0.6,1.2-1.7,1.7-3.1,1.7c-1.4,0-2.2-0.8-2.2-1.7c0-0.8,0.4-1.6,2.5-2.1
		c1.3-0.3,2.3-0.4,3-0.5C444.9,85,444.9,85.2,444.6,85.9z"/>
	<path d="M450.7,77.4v11.5h2v-5.3c0-1.1,0-2.1,0.5-2.9c0.6-0.9,1.5-1.4,2.7-1.4c0.3,0,0.6,0,0.8,0v-2.1c-0.8,0-2.9,0.1-4,2.3v-2.1
		H450.7z"/>
	<path d="M461.5,73.7h-2v3.7h-1.8V79h1.8v7.5c0,1.5,0,2.6,2.2,2.6c0.7,0,1.5-0.1,1.9-0.2v-1.6c-0.4,0.1-0.9,0.3-1.3,0.3
		c-0.8,0-0.8-0.6-0.8-2V79h2.1v-1.6h-2.1V73.7z"/>
	<rect x="466.6" y="77.4" width="1.9" height="11.5"/>
	<rect x="466.6" y="71.6" width="1.9" height="2.3"/>
	<path d="M477.6,82.3l-1.1-0.3c-1.5-0.4-2.8-0.7-2.8-1.8c0-0.8,0.8-1.7,2.3-1.7c0.6,0,1.5,0.1,2.2,0.7c0.8,0.6,0.8,1.2,0.8,1.9
		l2.1-0.3c-0.4-2.7-2.7-3.8-5-3.8c-2.7,0-4.5,1.3-4.5,3.4c0,2.4,2.3,2.9,4.1,3.4l1.1,0.2c1.4,0.3,2.4,0.5,2.4,1.8
		c0,1.3-1,1.9-2.7,1.9c-0.8,0-1.6-0.1-2.3-0.7c-0.9-0.8-0.9-1.7-0.9-2.3l-2.2,0.3c0.2,1.9,1.3,2.9,1.7,3.1c0.9,0.7,2.3,0.9,3.6,0.9
		c3.2,0,4.9-1.8,4.9-3.7C481.5,83.2,479,82.6,477.6,82.3z"/>
	<path d="M487,73.7h-2v3.7h-1.8V79h1.8v7.5c0,1.5,0,2.6,2.2,2.6c0.7,0,1.5-0.1,1.9-0.2v-1.6c-0.4,0.1-0.9,0.3-1.3,0.3
		c-0.8,0-0.8-0.6-0.8-2V79h2.1v-1.6H487V73.7z"/>
	<rect x="492.1" y="71.6" width="1.9" height="2.3"/>
	<rect x="492.1" y="77.4" width="1.9" height="11.5"/>
	<path d="M506.2,79.1c-0.2-0.4-0.9-1.3-2.2-1.8c-0.7-0.3-1.3-0.3-1.7-0.3c-1.5,0-2.9,0.7-3.8,1.7c-0.8,0.9-1.5,2.5-1.5,4.6
		c0,3.4,1.8,6,5.2,6c1.4,0,2.3-0.4,2.9-0.7c0.6-0.3,0.8-0.7,1.1-1v6.9h2v-17h-2V79.1z M505.5,86.5c-0.6,0.7-1.5,1.2-2.8,1.2
		c-1.7,0-2.6-1-2.8-1.3c-0.7-1-0.8-2.4-0.8-3.2c0-1.3,0.2-3.2,2-4c0.5-0.2,1-0.3,1.6-0.3c2.3,0,3.6,1.9,3.6,4.7
		C506.3,84.6,506.1,85.7,505.5,86.5z"/>
	<path d="M519.5,83.2c0,1.4,0,2.3-0.7,3.1c-0.5,0.6-1.4,1.1-2.6,1.1c-0.9,0-2.1-0.3-2.3-1.8c0-0.3,0-0.4,0-1.6v-6.6h-1.9v6.8
		c0,1.9,0,2.9,0.8,3.9c0.4,0.4,1.2,1.2,2.8,1.2c2.4,0,3.6-1.6,3.9-2.1v1.8h1.9V77.4h-1.9V83.2z"/>
	<path d="M535.1,81.1c-0.7-2.9-2.9-4.1-5.1-4.1c-2.5,0-5.6,1.7-5.6,6c0,3.9,2.2,6.2,5.7,6.2c3.9,0,5-3.1,5.2-3.9l-2-0.3
		c-0.3,1.5-1.3,2.7-3.1,2.7c-2.7,0-3.8-2.4-3.7-4.3h8.8C535.4,83,535.4,82.1,535.1,81.1z M526.6,82.1c0.2-2.3,1.6-3.6,3.3-3.6
		c1,0,3.1,0.5,3.3,3.6H526.6z"/>
	<polygon points="338.6,122.6 338.6,107.3 343.8,107.3 343.8,105.3 331.1,105.3 331.1,107.3 336.3,107.3 336.3,122.6 	"/>
	<path d="M350.5,111.1l-3.1,9.2l-2.9-9.2h-2.1l3.9,11.6l-0.5,1.4c-0.6,1.6-0.9,2.4-2.3,2.4c-0.6,0-1-0.1-1.3-0.2v1.7
		c0.4,0.1,1,0.3,1.8,0.3c2.2,0,2.7-1.3,3.6-3.6l4.9-13.7H350.5z"/>
	<path d="M366.1,116.9c0-4.2-2.7-6.2-5.2-6.2c-1.1,0-2.3,0.4-3,1c-0.5,0.3-0.7,0.6-1.1,1.1v-1.6h-1.9v17h1.9v-6.8
		c1,1.2,2.4,1.7,3.9,1.7C364.4,123,366.1,120.1,366.1,116.9z M362.4,120.7c-0.6,0.4-1.3,0.5-2,0.5c-2.4,0-3.6-1.7-3.6-4.2
		c0-2.6,1.3-4.4,3.6-4.5c2.2-0.1,3.8,1.5,3.8,4.3C364.1,119.2,363.1,120.3,362.4,120.7z"/>
	<path d="M374.2,123c3.5,0,5.6-2.6,5.6-6.1c0-3.2-1.7-6.1-5.6-6.1c-4.5,0-5.8,3.7-5.8,6.2C368.5,120,370.2,123,374.2,123z
		 M374.4,112.3c1.3,0,2.8,0.7,3.3,2.9c0.1,0.3,0.1,0.9,0.1,1.6c0,1.2-0.3,4.6-3.5,4.6c-2.5,0-3.5-2-3.5-4.4
		C370.7,114.3,371.7,112.3,374.4,112.3z"/>
	<path d="M387.7,123c2.2,0,3.4-1.4,3.8-2v1.3c0,1.9,0,2.8-0.7,3.5c-0.4,0.4-1.1,0.8-2.5,0.8c-2.4,0-3.2-1.4-3.2-2.7h-2.2
		c0.1,0.7,0.3,2.3,1.8,3.3c1,0.7,2.3,1,3.5,1c1.8,0,3.7-0.6,4.6-2.2c0.7-1.2,0.7-2.7,0.7-4v-10.9h-2v1.5c-1.3-1.6-2.7-1.9-3.8-1.9
		c-2.4,0-5.4,1.5-5.4,6.2C382.3,120.9,384.9,123,387.7,123z M387.9,112.5c0.8,0,3.7,0.3,3.7,4.2c0,0.7-0.1,2.1-0.8,3.1
		c-0.7,1-1.6,1.5-2.8,1.5c-0.9,0-2-0.3-2.8-1.4c-0.8-1-0.8-2.4-0.8-3C384.4,114.2,385.8,112.5,387.9,112.5z"/>
	<path d="M403.1,110.9c-0.8,0-2.9,0.1-4,2.3v-2.1h-2v11.5h2v-5.3c0-1.1,0-2.1,0.5-2.9c0.6-0.9,1.5-1.4,2.7-1.4c0.3,0,0.6,0,0.8,0
		V110.9z"/>
	<path d="M414.2,119.3v-3.8c0-1.5,0-2.9-1.3-3.9c-0.9-0.7-2.3-1-3.4-1c-2,0-3.3,0.8-4,2.1c-0.4,0.7-0.4,1.3-0.5,1.7l2.1,0.1
		c0-0.6,0-2.4,2.5-2.4c2.6,0,2.6,2,2.6,3.2v0.3l-1.8,0.1c-3.5,0.3-4.7,1.1-5.3,2c-0.3,0.5-0.5,1.1-0.5,1.7c0,2,1.7,3.3,3.9,3.3
		c2.2,0,3.4-1.3,4-1.9c0.2,1.4,1.1,1.7,2,1.7c0.6,0,0.9-0.1,1.2-0.2v-1.7c-0.2,0.1-0.4,0.1-0.6,0.1
		C414.2,121,414.2,120.4,414.2,119.3z M412,119.6c-0.6,1.2-1.7,1.7-3.1,1.7c-1.4,0-2.2-0.8-2.2-1.7c0-0.8,0.4-1.6,2.5-2.1
		c1.3-0.3,2.3-0.4,3-0.5C412.3,118.6,412.3,118.9,412,119.6z"/>
	<path d="M424.1,110.7c-1.1,0-2.3,0.4-3,1c-0.5,0.3-0.7,0.6-1.1,1.1v-1.6h-1.9v17h1.9v-6.8c1,1.2,2.4,1.7,3.9,1.7
		c3.7,0,5.4-2.8,5.4-6.1C429.3,112.7,426.6,110.7,424.1,110.7z M425.7,120.7c-0.6,0.4-1.3,0.5-2,0.5c-2.4,0-3.6-1.7-3.6-4.2
		c0-2.6,1.3-4.4,3.6-4.5c2.2-0.1,3.8,1.5,3.8,4.3C427.3,119.2,426.3,120.3,425.7,120.7z"/>
	<path d="M437.9,110.7c-1.1,0-2.3,0.2-3.5,1.5v-6.9h-2v17.3h2V117c0-0.9,0-1.5,0.1-2.1c0.4-1.8,1.7-2.5,3-2.5c0.8,0,1.5,0.3,2,1
		c0.5,0.7,0.5,1.6,0.5,3.1v6.1h2v-6.7c0-1.2,0-1.9-0.2-2.6C441.5,112.1,440.4,110.7,437.9,110.7z"/>
	<rect x="445.7" y="111.1" width="1.9" height="11.5"/>
	<rect x="445.7" y="105.3" width="1.9" height="2.3"/>
	<path d="M461.3,114.8c-0.7-2.9-2.9-4.1-5.1-4.1c-2.5,0-5.6,1.7-5.6,6c0,3.9,2.2,6.2,5.7,6.2c3.9,0,5-3.1,5.2-3.9l-2-0.3
		c-0.3,1.5-1.3,2.7-3.1,2.7c-2.7,0-3.8-2.4-3.7-4.3h8.8C461.5,116.7,461.5,115.8,461.3,114.8z M452.8,115.8c0.2-2.3,1.6-3.6,3.3-3.6
		c1,0,3.1,0.5,3.3,3.6H452.8z"/>
	<rect x="332.5" y="139" width="2.3" height="17.3"/>
	<rect x="338.6" y="139" width="1.9" height="17.3"/>
	<rect x="344.2" y="139" width="1.9" height="17.3"/>
	<path d="M357.3,150.5c0,1.4,0,2.3-0.7,3.1c-0.5,0.6-1.4,1.1-2.6,1.1c-0.9,0-2.1-0.3-2.3-1.8c0-0.3,0-0.4,0-1.6v-6.6h-1.9v6.8
		c0,1.9,0,2.9,0.8,3.9c0.4,0.4,1.2,1.2,2.8,1.2c2.4,0,3.6-1.6,3.9-2.1v1.8h1.9v-11.5h-1.9V150.5z"/>
	<path d="M368.5,149.7l-1.1-0.3c-1.5-0.4-2.8-0.7-2.8-1.8c0-0.8,0.8-1.7,2.3-1.7c0.6,0,1.5,0.1,2.2,0.7c0.8,0.6,0.8,1.2,0.8,1.9
		l2.1-0.3c-0.4-2.7-2.7-3.8-5-3.8c-2.7,0-4.5,1.3-4.5,3.4c0,2.4,2.3,2.9,4.1,3.4l1.1,0.2c1.4,0.3,2.4,0.5,2.4,1.8
		c0,1.3-1,1.9-2.7,1.9c-0.8,0-1.6-0.1-2.3-0.7c-0.9-0.8-0.9-1.7-0.9-2.3l-2.2,0.3c0.2,1.9,1.3,2.9,1.7,3.1c0.9,0.7,2.3,0.9,3.6,0.9
		c3.2,0,4.9-1.8,4.9-3.7C372.3,150.6,369.8,150,368.5,149.7z"/>
	<path d="M377.9,141.1h-2v3.7H374v1.6h1.8v7.5c0,1.5,0,2.6,2.2,2.6c0.7,0,1.5-0.1,1.9-0.2v-1.6c-0.4,0.1-0.9,0.3-1.3,0.3
		c-0.8,0-0.8-0.6-0.8-2v-6.6h2.1v-1.6h-2.1V141.1z"/>
	<path d="M384.8,146.9v-2.1h-2v11.5h2V151c0-1.1,0-2.1,0.5-2.9c0.6-0.9,1.5-1.4,2.7-1.4c0.3,0,0.6,0,0.8,0v-2.1
		C388,144.6,385.9,144.7,384.8,146.9z"/>
	<path d="M399.9,153v-3.8c0-1.5,0-2.9-1.3-3.9c-0.9-0.7-2.3-1-3.4-1c-2,0-3.3,0.8-4,2.1c-0.4,0.7-0.4,1.3-0.5,1.7l2.1,0.1
		c0-0.6,0-2.4,2.5-2.4c2.6,0,2.6,2,2.6,3.2v0.3l-1.8,0.1c-3.5,0.3-4.7,1.1-5.3,2c-0.3,0.5-0.5,1.1-0.5,1.7c0,2,1.7,3.3,3.9,3.3
		c2.2,0,3.4-1.3,4-1.9c0.2,1.4,1.1,1.7,2,1.7c0.6,0,0.9-0.1,1.2-0.2v-1.7c-0.2,0.1-0.4,0.1-0.6,0.1
		C399.9,154.7,399.9,154.1,399.9,153z M397.6,153.2c-0.6,1.2-1.7,1.7-3.1,1.7c-1.4,0-2.2-0.8-2.2-1.7c0-0.8,0.4-1.6,2.5-2.1
		c1.3-0.3,2.3-0.4,3-0.5C397.9,152.3,397.9,152.6,397.6,153.2z"/>
	<path d="M406.4,141.1h-2v3.7h-1.8v1.6h1.8v7.5c0,1.5,0,2.6,2.2,2.6c0.7,0,1.5-0.1,1.9-0.2v-1.6c-0.4,0.1-0.9,0.3-1.3,0.3
		c-0.8,0-0.8-0.6-0.8-2v-6.6h2.1v-1.6h-2.1V141.1z"/>
	<rect x="411.5" y="144.8" width="1.9" height="11.5"/>
	<rect x="411.5" y="139" width="1.9" height="2.3"/>
	<path d="M422.2,144.4c-4.5,0-5.8,3.7-5.8,6.2c0,3,1.7,6,5.7,6c3.5,0,5.6-2.6,5.6-6.1C427.7,147.4,426,144.4,422.2,144.4z
		 M425.6,150.5c0,1.2-0.3,4.6-3.5,4.6c-2.5,0-3.5-2-3.5-4.4c0-2.6,1.1-4.7,3.7-4.7c1.3,0,2.8,0.7,3.3,2.9
		C425.5,149.2,425.6,149.8,425.6,150.5z"/>
	<path d="M436.3,144.4c-0.7,0-2.5,0.2-3.6,2.1v-1.7h-2v11.5h2v-6.6c0-0.9,0-1.7,0.9-2.6c0.6-0.6,1.3-0.9,2.2-0.9
		c1.1,0,2.1,0.5,2.5,1.6c0.1,0.4,0.1,0.7,0.1,1.9v6.6h1.9v-6.9c0-1,0-1.7-0.2-2.4C439.6,145.1,437.8,144.4,436.3,144.4z"/>
</g>
<g>
</g>
<g>
</g>
<g>
</g>
<g>
</g>
<g>
</g>
<g>
</g>
</svg>
